<svg width="24" height="24" viewBox="0 0 24 24" fill="none" xmlns="http://www.w3.org/2000/svg">
<rect x="23.5" y="0.5" width="23" height="23" rx="3.5" transform="rotate(90 23.5 0.5)" stroke="#808080" stroke-opacity="0.25"/>
<path d="M13.0095 11.6888C13.0095 11.5872 13.0286 11.4889 13.0667 11.3939C13.1048 11.2984 13.1556 11.219 13.219 11.1555L16.7238 7.6507C16.8635 7.51102 17.0413 7.44118 17.2571 7.44118C17.473 7.44118 17.6508 7.51102 17.7905 7.6507C17.9302 7.79038 18 7.96816 18 8.18403C18 8.39991 17.9302 8.57769 17.7905 8.71737L14.819 11.6888L17.7905 14.6602C17.9302 14.7999 18 14.9777 18 15.1936C18 15.4094 17.9302 15.5872 17.7905 15.7269C17.6508 15.8666 17.473 15.9364 17.2571 15.9364C17.0413 15.9364 16.8635 15.8666 16.7238 15.7269L13.219 12.2221C13.1429 12.1459 13.089 12.0634 13.0575 11.9745C13.0255 11.8856 13.0095 11.7904 13.0095 11.6888Z" fill="#808080"/>
<path d="M5.99976 11.6888C5.99976 11.5872 6.01881 11.4889 6.0569 11.3939C6.095 11.2984 6.14579 11.219 6.20928 11.1555L9.71404 7.6507C9.85373 7.51102 10.0315 7.44118 10.2474 7.44118C10.4633 7.44118 10.641 7.51102 10.7807 7.6507C10.9204 7.79038 10.9902 7.96816 10.9902 8.18403C10.9902 8.39991 10.9204 8.57769 10.7807 8.71737L7.80928 11.6888L10.7807 14.6602C10.9204 14.7999 10.9902 14.9777 10.9902 15.1936C10.9902 15.4094 10.9204 15.5872 10.7807 15.7269C10.641 15.8666 10.4633 15.9364 10.2474 15.9364C10.0315 15.9364 9.85373 15.8666 9.71404 15.7269L6.20928 12.2221C6.13309 12.1459 6.07925 12.0634 6.04776 11.9745C6.01576 11.8856 5.99976 11.7904 5.99976 11.6888Z" fill="#808080"/>
</svg>
