<svg width="20" height="23" viewBox="0 0 20 23" fill="none" xmlns="http://www.w3.org/2000/svg">
<path d="M1.31592 17.8684H18.6843" stroke="#808080" stroke-width="1.83333" stroke-linecap="round" stroke-linejoin="round"/>
<path d="M18.6843 17.8684C18.2424 17.8147 17.8311 17.6145 17.5163 17.2996C17.2014 16.9848 17.0012 16.5736 16.9475 16.1316V11.7895C16.9475 7.44736 13.981 3.60546 10.0001 3.60546C6.01929 3.60546 3.05276 7.44736 3.05276 11.7895V16.1316C2.99906 16.5736 2.79881 16.9848 2.48398 17.2996C2.16915 17.6145 1.7579 17.8147 1.31592 17.8684" stroke="#808080" stroke-width="1.83333" stroke-linecap="round" stroke-linejoin="round"/>
<path d="M13.4737 17.8684C13.4737 18.7897 13.1078 19.6732 12.4563 20.3247C11.8049 20.9761 10.9213 21.3421 10.0001 21.3421C9.07877 21.3421 8.19523 20.9761 7.54379 20.3247C6.89234 19.6732 6.52637 18.7897 6.52637 17.8684" stroke="#808080" stroke-width="1.83333" stroke-linecap="round" stroke-linejoin="round"/>
<path d="M10 3.60546V1.36841" stroke="#808080" stroke-width="1.83333" stroke-linecap="round" stroke-linejoin="round"/>
</svg>
