<svg width="40" height="40" viewBox="0 0 40 40" fill="none" xmlns="http://www.w3.org/2000/svg">
<g id="Group">
<circle id="Ellipse 5" cx="20" cy="20" r="20" transform="matrix(1 0 0 -1 0 40)" fill="white"/>
<path id="Vector" d="M20.4797 13.18H17.6221V18.8138H22.1179V21.1726H17.6221V26.806H20.6197C21.3899 26.806 26.9429 26.893 26.9343 20.2516C26.9257 13.6102 21.5485 13.18 20.4797 13.18Z" fill="#C2A633"/>
<path id="Vector_2" d="M20 0C8.9542 0 0 8.9542 0 20C0 31.0458 8.9542 40 20 40C31.0458 40 40 31.0458 40 20C40 8.9542 31.0458 0 20 0ZM20.7858 30.802H13.5428V21.1728H10.9896V18.814H13.5426V9.1842H19.759C21.2296 9.1842 30.9702 8.8788 30.9702 20.1738C30.9702 31.6556 20.786 30.802 20.786 30.802H20.7858Z" fill="#C2A633"/>
</g>
</svg>
