<svg width="9" height="14" viewBox="0 0 9 14" fill="none" xmlns="http://www.w3.org/2000/svg">
<path d="M4.048 13.928V12.36C3.35467 12.3387 2.736 12.2747 2.192 12.168C1.648 12.0507 1.152 11.8907 0.704 11.688V9.624C1.14133 9.83733 1.664 10.0347 2.272 10.216C2.89067 10.3867 3.48267 10.488 4.048 10.52V8.104C3.22667 7.784 2.56533 7.47467 2.064 7.176C1.57333 6.86667 1.22133 6.52533 1.008 6.152C0.794667 5.77867 0.688 5.33067 0.688 4.808C0.688 4.008 0.997333 3.37333 1.616 2.904C2.24533 2.424 3.056 2.14133 4.048 2.056V0.855999H5.12V2.024C6.304 2.06667 7.38133 2.30667 8.352 2.744L7.616 4.568C7.18933 4.38667 6.75733 4.248 6.32 4.152C5.89333 4.056 5.49333 3.992 5.12 3.96V6.264C5.696 6.47733 6.24533 6.712 6.768 6.968C7.29067 7.21333 7.712 7.528 8.032 7.912C8.36267 8.296 8.528 8.80267 8.528 9.432C8.528 10.2107 8.24533 10.8613 7.68 11.384C7.11467 11.9067 6.26133 12.2213 5.12 12.328V13.928H4.048ZM4.048 5.832V3.992C3.376 4.088 3.04 4.36 3.04 4.808C3.04 5.032 3.12 5.21867 3.28 5.368C3.44 5.51733 3.696 5.672 4.048 5.832ZM5.12 10.472C5.824 10.344 6.176 10.0347 6.176 9.544C6.176 9.33067 6.08533 9.14933 5.904 9C5.73333 8.84 5.472 8.68 5.12 8.52V10.472Z" fill="#1A1A1A"/>
</svg>
