<svg width="16" height="16" viewBox="0 0 16 16" fill="none" xmlns="http://www.w3.org/2000/svg">
<path d="M7.17508 2.54583C7.27909 2.66158 7.4063 2.75415 7.54844 2.81752C7.69058 2.88088 7.84446 2.91363 8.00008 2.91363C8.1557 2.91363 8.30958 2.88088 8.45171 2.81752C8.59385 2.75415 8.72106 2.66158 8.82508 2.54583L9.36591 1.95C9.52121 1.78011 9.72478 1.66182 9.94927 1.61102C10.1738 1.56023 10.4084 1.57935 10.6217 1.66583C10.8349 1.75446 11.0154 1.90689 11.1385 2.10219C11.2616 2.2975 11.3213 2.52612 11.3092 2.75667V3.55417C11.2984 3.71105 11.3213 3.86844 11.3764 4.01572C11.4315 4.163 11.5176 4.29674 11.6288 4.40794C11.74 4.51914 11.8737 4.6052 12.021 4.66033C12.1683 4.71545 12.3257 4.73836 12.4826 4.7275H13.2801C13.5106 4.71549 13.7392 4.77512 13.9346 4.89821C14.1299 5.02131 14.2823 5.20183 14.3709 5.415C14.4574 5.62831 14.4765 5.86297 14.4257 6.08747C14.3749 6.31197 14.2566 6.51554 14.0867 6.67083L13.5001 7.175C13.3843 7.27902 13.2918 7.40623 13.2284 7.54836C13.165 7.6905 13.1323 7.84438 13.1323 8C13.1323 8.15562 13.165 8.3095 13.2284 8.45164C13.2918 8.59377 13.3843 8.72098 13.5001 8.825L14.0959 9.36583C14.2658 9.52113 14.3841 9.7247 14.4349 9.9492C14.4857 10.1737 14.4666 10.4084 14.3801 10.6217C14.2915 10.8348 14.139 11.0154 13.9437 11.1385C13.7484 11.2615 13.5198 11.3212 13.2892 11.3092H12.4917C12.3349 11.2983 12.1775 11.3212 12.0302 11.3763C11.8829 11.4315 11.7492 11.5175 11.638 11.6287C11.5268 11.7399 11.4407 11.8737 11.3856 12.0209C11.3305 12.1682 11.3076 12.3256 11.3184 12.4825V13.28C11.3304 13.5106 11.2708 13.7392 11.1477 13.9345C11.0246 14.1298 10.8441 14.2822 10.6309 14.3708C10.4176 14.4573 10.1829 14.4764 9.95844 14.4256C9.73394 14.3748 9.53037 14.2566 9.37508 14.0867L8.82508 13.5C8.72106 13.3842 8.59385 13.2917 8.45171 13.2283C8.30958 13.165 8.1557 13.1322 8.00008 13.1322C7.84446 13.1322 7.69058 13.165 7.54844 13.2283C7.4063 13.2917 7.27909 13.3842 7.17508 13.5L6.63424 14.0958C6.47895 14.2657 6.27538 14.384 6.05088 14.4348C5.82638 14.4856 5.59172 14.4665 5.37841 14.38C5.16524 14.2914 4.98472 14.1389 4.86162 13.9436C4.73853 13.7483 4.6789 13.5197 4.69091 13.2892V12.4917C4.70177 12.3348 4.67886 12.1774 4.62374 12.0301C4.56861 11.8828 4.48255 11.7491 4.37135 11.6379C4.26015 11.5267 4.12641 11.4406 3.97913 11.3855C3.83185 11.3304 3.67446 11.3075 3.51758 11.3183H2.72008C2.48953 11.3303 2.26091 11.2707 2.0656 11.1476C1.8703 11.0245 1.71787 10.844 1.62924 10.6308C1.54276 10.4175 1.52363 10.1829 1.57443 9.95836C1.62523 9.73387 1.74352 9.5303 1.91341 9.375L2.50924 8.83417C2.62499 8.73015 2.71756 8.60294 2.78093 8.4608C2.84429 8.31867 2.87704 8.16479 2.87704 8.00917C2.87704 7.85355 2.84429 7.69967 2.78093 7.55753C2.71756 7.4154 2.62499 7.28818 2.50924 7.18417L1.91341 6.64333C1.74352 6.48804 1.62523 6.28447 1.57443 6.05997C1.52363 5.83547 1.54276 5.60081 1.62924 5.3875C1.71787 5.17433 1.8703 4.99381 2.0656 4.87071C2.26091 4.74762 2.48953 4.68799 2.72008 4.7H3.51758C3.67494 4.71599 3.8339 4.69786 3.98361 4.64683C4.13333 4.59581 4.27028 4.5131 4.38513 4.40434C4.49998 4.29558 4.59002 4.16334 4.64912 4.01662C4.70822 3.8699 4.73498 3.71217 4.72758 3.55417V2.75667C4.71556 2.52612 4.7752 2.2975 4.89829 2.10219C5.02138 1.90689 5.2019 1.75446 5.41508 1.66583C5.62838 1.57935 5.86305 1.56023 6.08755 1.61102C6.31204 1.66182 6.51561 1.78011 6.67091 1.95L7.17508 2.54583Z" stroke="#808080" stroke-width="1.22222" stroke-linecap="round" stroke-linejoin="round"/>
<path d="M8.00024 10.0625C9.13933 10.0625 10.0627 9.13909 10.0627 8C10.0627 6.86091 9.13933 5.9375 8.00024 5.9375C6.86116 5.9375 5.93774 6.86091 5.93774 8C5.93774 9.13909 6.86116 10.0625 8.00024 10.0625Z" stroke="#808080" stroke-width="1.22222" stroke-linecap="round" stroke-linejoin="round"/>
</svg>
