<svg width="16" height="16" viewBox="0 0 16 16" fill="none" xmlns="http://www.w3.org/2000/svg">
<path d="M8.38811 5.7738L6.45224 5.7738C5.3233 5.7738 4.24061 6.2291 3.44233 7.03952C2.64405 7.84995 2.19558 8.94912 2.19558 10.0952C2.19558 11.2413 2.64405 12.3405 3.44233 13.1509C4.2406 13.9614 5.3233 14.4167 6.45224 14.4167L13.8057 14.4167" stroke="#808080" stroke-width="1.22222" stroke-linecap="round" stroke-linejoin="round"/>
<path d="M6.84031 7.34522L8.38818 5.77379L6.84031 4.20236" stroke="#808080" stroke-width="1.22222" stroke-linecap="round" stroke-linejoin="round"/>
<path d="M7.61214 10.2262L9.54801 10.2262C10.6769 10.2262 11.7596 9.77087 12.5579 8.96045C13.3562 8.15002 13.8047 7.05085 13.8047 5.90474C13.8047 4.75862 13.3562 3.65945 12.5579 2.84902C11.7596 2.0386 10.6769 1.58331 9.54801 1.58331L2.19458 1.58331" stroke="#808080" stroke-width="1.22222" stroke-linecap="round" stroke-linejoin="round"/>
<path d="M9.15993 8.65475L7.61206 10.2262L9.15993 11.7976" stroke="#808080" stroke-width="1.22222" stroke-linecap="round" stroke-linejoin="round"/>
</svg>
