<svg width="24" height="24" viewBox="0 0 24 24" fill="none" xmlns="http://www.w3.org/2000/svg">
<g id="Group 2544">
<circle id="Ellipse 7" cx="12" cy="12" r="12" fill="#50AF95"/>
<path id="Vector" fill-rule="evenodd" clip-rule="evenodd" d="M13.9854 12.3938C13.9006 12.4002 13.4622 12.4263 12.4843 12.4263C11.7065 12.4263 11.1543 12.403 10.9606 12.3938C7.95484 12.2616 5.71131 11.7384 5.71131 11.1119C5.71131 10.4854 7.95484 9.96291 10.9606 9.82857V11.8727C11.1571 11.8868 11.72 11.9201 12.4977 11.9201C13.4311 11.9201 13.8984 11.8812 13.9826 11.8734V9.82998C16.982 9.96362 19.2205 10.4868 19.2205 11.1119C19.2205 11.7369 16.9827 12.2602 13.9826 12.3931L13.9854 12.3938ZM13.9854 9.61857V7.78938H18.1713V5H6.77474V7.78938H10.9599V9.61786C7.55817 9.77412 5 10.448 5 11.2554C5 12.0629 7.55817 12.736 10.9599 12.893V18.7546H13.9847V12.8909C17.3786 12.7346 19.9326 12.0615 19.9326 11.2547C19.9326 10.448 17.3808 9.77483 13.9847 9.61786L13.9854 9.61857Z" fill="white"/>
</g>
</svg>
